<?xml version="1.0" encoding="UTF-8"?>
<svg xmlns="http://www.w3.org/2000/svg" xmlns:xlink="http://www.w3.org/1999/xlink" width="64px" height="64px" viewBox="0 0 64 64" version="1.1">
<g id="surface1">
<path style="fill-rule:nonzero;fill:rgb(21.176471%,23.921569%,32.156863%);fill-opacity:1;stroke-width:4;stroke-linecap:butt;stroke-linejoin:miter;stroke:rgb(12.941176%,14.509804%,19.607843%);stroke-opacity:1;stroke-miterlimit:4;" d="M 16 2 L 112 2 C 119.734375 2 126 8.265625 126 16 L 126 112 C 126 119.734375 119.734375 126 112 126 L 16 126 C 8.265625 126 2 119.734375 2 112 L 2 16 C 2 8.265625 8.265625 2 16 2 Z M 16 2 " transform="matrix(0.5,0,0,0.5,0,0)"/>
<path style=" stroke:none;fill-rule:nonzero;fill:rgb(100%,100%,100%);fill-opacity:1;" d="M 11.464844 40.148438 L 11.464844 41.8125 C 25.164062 53.730469 38.867188 53.730469 52.570312 41.8125 L 52.570312 40.148438 Z M 11.464844 40.148438 "/>
<path style=" stroke:none;fill-rule:nonzero;fill:rgb(27.843137%,54.901961%,74.901961%);fill-opacity:1;" d="M 11.464844 40.148438 L 19.140625 40.855469 C 19.542969 40.886719 19.796875 41.125 19.898438 41.5625 L 20.097656 44.945312 L 26.765625 45.449219 L 27.167969 42.371094 C 27.238281 42 27.488281 41.746094 27.925781 41.613281 L 36.109375 41.613281 C 36.546875 41.746094 36.796875 42 36.863281 42.371094 L 37.269531 45.449219 L 43.933594 44.945312 L 44.136719 41.5625 C 44.238281 41.125 44.492188 40.886719 44.894531 40.855469 L 52.570312 40.148438 L 52.570312 27.722656 C 53.582031 26.410156 54.523438 25.046875 55.398438 23.632812 C 54.21875 21.648438 52.824219 19.828125 51.207031 18.179688 C 49.757812 18.851562 48.378906 19.644531 47.066406 20.554688 C 45.71875 19.308594 44.238281 18.230469 42.621094 17.320312 C 42.859375 15.605469 42.992188 13.886719 43.027344 12.171875 C 41.039062 11.226562 38.96875 10.519531 36.816406 10.050781 C 35.9375 11.496094 35.164062 12.996094 34.492188 14.542969 C 32.84375 14.308594 31.191406 14.308594 29.542969 14.542969 C 28.871094 12.996094 28.09375 11.496094 27.21875 10.050781 C 25.066406 10.519531 22.996094 11.226562 21.007812 12.171875 C 21.042969 13.886719 21.175781 15.605469 21.410156 17.320312 C 19.796875 18.230469 18.316406 19.308594 16.96875 20.554688 C 15.65625 19.644531 14.273438 18.851562 12.828125 18.179688 C 11.210938 19.828125 9.8125 21.648438 8.636719 23.632812 C 9.511719 25.046875 10.453125 26.410156 11.464844 27.722656 Z M 11.464844 41.8125 L 11.464844 43.785156 C 11.464844 57.722656 52.519531 57.722656 52.570312 43.785156 L 52.570312 41.8125 L 45.804688 42.421875 L 45.550781 45.90625 C 45.484375 46.242188 45.246094 46.460938 44.84375 46.5625 L 36.664062 47.117188 C 36.257812 47.117188 35.988281 46.929688 35.855469 46.5625 L 35.351562 43.277344 L 28.683594 43.277344 L 28.179688 46.5625 C 28.042969 46.929688 27.773438 47.117188 27.371094 47.117188 L 19.191406 46.5625 C 18.785156 46.460938 18.550781 46.242188 18.484375 45.90625 L 18.230469 42.421875 Z M 11.464844 41.8125 "/>
<path style=" stroke:none;fill-rule:nonzero;fill:rgb(100%,100%,100%);fill-opacity:1;" d="M 30.550781 36.460938 C 30.550781 38.179688 33.480469 38.179688 33.480469 36.460938 L 33.480469 32.117188 C 33.480469 30.402344 30.550781 30.402344 30.550781 32.117188 Z M 30.550781 36.460938 "/>
<path style=" stroke:none;fill-rule:nonzero;fill:rgb(100%,100%,100%);fill-opacity:1;" d="M 47.320312 32.722656 C 47.320312 35.234375 45.285156 37.269531 42.773438 37.269531 C 40.261719 37.269531 38.226562 35.234375 38.226562 32.722656 C 38.226562 30.214844 40.261719 28.179688 42.773438 28.179688 C 45.285156 28.179688 47.320312 30.214844 47.320312 32.722656 Z M 47.320312 32.722656 "/>
<path style=" stroke:none;fill-rule:nonzero;fill:rgb(100%,100%,100%);fill-opacity:1;" d="M 25.804688 32.722656 C 25.804688 35.234375 23.769531 37.269531 21.261719 37.269531 C 18.75 37.269531 16.714844 35.234375 16.714844 32.722656 C 16.714844 30.214844 18.75 28.179688 21.261719 28.179688 C 23.769531 28.179688 25.804688 30.214844 25.804688 32.722656 Z M 25.804688 32.722656 "/>
<path style=" stroke:none;fill-rule:nonzero;fill:rgb(25.490196%,25.098039%,25.882353%);fill-opacity:1;" d="M 24.695312 33.027344 C 24.695312 34.699219 23.339844 36.058594 21.664062 36.058594 C 19.992188 36.058594 18.632812 34.699219 18.632812 33.027344 C 18.632812 31.355469 19.992188 29.996094 21.664062 29.996094 C 23.339844 29.996094 24.695312 31.355469 24.695312 33.027344 Z M 24.695312 33.027344 "/>
<path style=" stroke:none;fill-rule:nonzero;fill:rgb(25.490196%,25.098039%,25.882353%);fill-opacity:1;" d="M 45.398438 33.027344 C 45.398438 34.699219 44.042969 36.058594 42.371094 36.058594 C 40.695312 36.058594 39.339844 34.699219 39.339844 33.027344 C 39.339844 31.355469 40.695312 29.996094 42.371094 29.996094 C 44.042969 29.996094 45.398438 31.355469 45.398438 33.027344 Z M 45.398438 33.027344 "/>
</g>
</svg>
